Coordinates
version=1
nRows=9
nColumns=63
inDegrees=yes

Units are S.I. units (second, meters, Newtons, ...)
If the header above contains a line with 'inDegrees', this indicates whether rotational values are in degrees (yes) or radians (no).

endheader
time	pelvis_tilt	pelvis_list	pelvis_rotation	pelvis_tx	pelvis_ty	pelvis_tz	hip_flexion_r	hip_adduction_r	hip_rotation_r	knee_angle_r	knee_angle_r_beta	ankle_angle_r	subtalar_angle_r	mtp_angle_r	hip_flexion_l	hip_adduction_l	hip_rotation_l	knee_angle_l	knee_angle_l_beta	ankle_angle_l	subtalar_angle_l	mtp_angle_l	L5_S1_Flex_Ext	L5_S1_Lat_Bending	L5_S1_axial_rotation	L4_L5_Flex_Ext	L4_L5_Lat_Bending	L4_L5_axial_rotation	L3_L4_Flex_Ext	L3_L4_Lat_Bending	L3_L4_axial_rotation	L2_L3_Flex_Ext	L2_L3_Lat_Bending	L2_L3_axial_rotation	L1_L2_Flex_Ext	L1_L2_Lat_Bending	L1_L2_axial_rotation	L1_T12_Flex_Ext	L1_T12_Lat_Bending	L1_T12_axial_rotation	Abs_r3	Abs_r2	Abs_r1	Abs_t1	Abs_t2	neck_flexion	neck_bending	neck_rotation	arm_flex_r	arm_add_r	arm_rot_r	elbow_flex_r	pro_sup_r	wrist_flex_r	wrist_dev_r	arm_flex_l	arm_add_l	arm_rot_l	elbow_flex_l	pro_sup_l	wrist_flex_l	wrist_dev_l
5.333333	9.850498	19.114563	93.248556	0.142502	0.522115	1.092545	-10.958144	9.281360	-15.803416	16.672500	0.290990	33.351828	17.674647	0.000000	-11.630709	-7.457048	0.148427	16.777543	0.292823	37.184422	-5.627798	0.000000	-1.515426	2.287138	8.267107	-2.814298	3.041894	8.783801	-2.489693	5.560948	8.783801	-1.731980	5.560948	7.233719	-1.407225	4.663932	6.717025	-0.865914	3.542777	6.200330	-10.824537	25.872563	45.979170	0.000000	0.000000	1.182132	9.973635	-44.632461	-25.723551	-35.090158	-25.750807	149.866271	51.713804	45.497992	1.889475	51.236885	53.421905	206.143468	0.028896	0.414655	-69.956769	-24.782057
5.350000	9.877929	19.047724	93.072928	0.142169	0.522690	1.093055	-10.950734	9.228003	-15.758629	16.578262	0.289345	33.147738	17.779110	0.000000	-11.551453	-7.367158	0.267227	16.800280	0.293220	36.854073	-6.300064	0.000000	-1.516230	2.289653	8.274403	-2.815791	3.045239	8.791553	-2.491014	5.567063	8.791553	-1.732899	5.567063	7.240102	-1.407971	4.669061	6.722952	-0.866374	3.546673	6.205802	-10.830279	25.901014	46.019744	0.000000	0.000000	0.995550	10.093532	-44.638646	-25.657342	-35.244648	-25.615626	149.864135	50.881710	45.388497	2.713152	50.892542	53.434223	206.888589	0.028756	0.415883	-69.957080	-24.784425
5.366667	9.927117	18.960417	92.847898	0.141763	0.523343	1.093599	-10.916627	9.184354	-15.649281	16.465786	0.287382	32.935733	17.884927	0.000000	-11.481939	-7.280406	0.340325	16.769747	0.292687	36.499095	-6.986373	0.000000	-1.516104	2.292778	8.281888	-2.815558	3.049395	8.799505	-2.490808	5.574661	8.799505	-1.732756	5.574661	7.246652	-1.407855	4.675433	6.729034	-0.866302	3.551514	6.211416	-10.829382	25.936366	46.061374	0.000000	0.000000	0.812925	10.235973	-44.645719	-25.601075	-35.405741	-25.537115	149.861369	50.161603	45.291425	3.456651	50.494069	53.470274	207.674774	0.028605	0.415875	-69.957398	-24.786676
5.383333	9.990995	18.854018	92.588689	0.141320	0.524028	1.094151	-10.857058	9.151133	-15.479035	16.334004	0.285082	32.731607	17.981259	0.000000	-11.412798	-7.198589	0.366587	16.698370	0.291442	36.140078	-7.651298	0.000000	-1.515333	2.295640	8.287301	-2.814124	3.053202	8.805258	-2.489540	5.581620	8.805258	-1.731874	5.581620	7.251389	-1.407138	4.681270	6.733432	-0.865861	3.555947	6.215476	-10.823870	25.968744	46.091483	0.000000	0.000000	0.631201	10.389585	-44.653037	-25.531624	-35.558375	-25.534710	149.858393	49.579658	45.213847	4.127497	50.082090	53.528214	208.419702	0.028455	0.415511	-69.957696	-24.788833
5.400000	10.070630	18.732799	92.291075	0.140881	0.524708	1.094657	-10.779567	9.130406	-15.245165	16.188026	0.282534	32.549316	18.072636	0.000000	-11.354162	-7.124619	0.345967	16.580504	0.289384	35.794459	-8.285164	0.000000	-1.514288	2.297935	8.291260	-2.812184	3.056254	8.809464	-2.487823	5.587199	8.809464	-1.730680	5.587199	7.254852	-1.406168	4.685949	6.736649	-0.865264	3.559501	6.218445	-10.816406	25.994700	46.113501	0.000000	0.000000	0.463967	10.544001	-44.660144	-25.442522	-35.718130	-25.600383	149.855282	49.142083	45.166128	4.708869	49.694142	53.609599	209.119466	0.028307	0.414245	-69.957953	-24.790697
5.416667	10.173432	18.599956	91.955662	0.140436	0.525348	1.095097	-10.689920	9.128764	-14.951513	16.032786	0.279825	32.381669	18.156108	0.000000	-11.307730	-7.067251	0.259862	16.420196	0.286586	35.472727	-8.875120	0.000000	-1.513380	2.300243	8.292233	-2.810498	3.059323	8.810498	-2.486332	5.592811	8.810498	-1.729642	5.592811	7.255704	-1.405325	4.690656	6.737439	-0.864745	3.563077	6.219175	-10.809921	26.020811	46.118913	0.000000	0.000000	0.344738	10.703647	-44.664932	-25.317310	-35.902370	-25.737247	149.851780	48.847701	45.179599	5.160286	49.361716	53.720498	209.775787	0.028159	0.414083	-69.958157	-24.791855
5.433333	10.282054	18.461325	91.601962	0.140036	0.525882	1.095444	-10.598491	9.136828	-14.611372	15.874906	0.277069	32.246682	18.221963	0.000000	-11.256605	-7.020758	0.126475	16.264126	0.283863	35.214630	-9.392228	0.000000	-1.513005	2.300811	8.290784	-2.809802	3.060079	8.808958	-2.485716	5.594192	8.808958	-1.729213	5.594192	7.254436	-1.404977	4.691814	6.736262	-0.864531	3.563957	6.218088	-10.807244	26.027236	46.110851	0.000000	0.000000	0.281431	10.834699	-44.670428	-25.148367	-36.109886	-25.942901	149.848042	48.726441	45.265393	5.490011	49.099271	53.859941	210.346337	0.028028	0.412750	-69.958292	-24.793022
5.450000	10.402059	18.319234	91.229789	0.139654	0.526310	1.095662	-10.511397	9.156167	-14.237401	15.723478	0.274426	32.119804	18.264778	0.000000	-11.223184	-6.989798	-0.067439	16.078106	0.280616	35.012107	-9.814206	0.000000	-1.511957	2.300523	8.285446	-2.807854	3.059696	8.803287	-2.483993	5.593492	8.803287	-1.728015	5.593492	7.249765	-1.404003	4.691227	6.731925	-0.863932	3.563511	6.214085	-10.799754	26.023980	46.081167	0.000000	0.000000	0.261851	10.942618	-44.672979	-24.932851	-36.359346	-26.183450	149.843092	48.743776	45.434352	5.668571	48.900609	54.018020	210.831653	0.027904	0.414309	-69.958370	-24.793707
5.466667	10.525704	18.186317	90.842905	0.139358	0.526603	1.095764	-10.444576	9.181320	-13.854507	15.587341	0.272050	31.997278	18.290615	0.000000	-11.194408	-6.974047	-0.315229	15.917079	0.277805	34.895071	-10.136870	0.000000	-1.512087	2.298948	8.281797	-2.808097	3.057601	8.799410	-2.484208	5.589662	8.799410	-1.728164	5.589662	7.246573	-1.404124	4.688015	6.728960	-0.864007	3.561070	6.211348	-10.800687	26.006159	46.060873	0.000000	0.000000	0.339028	11.012508	-44.676137	-24.685185	-36.641387	-26.459785	149.837726	48.902516	45.673169	5.704313	48.772426	54.200090	211.230397	0.027797	0.414780	-69.958387	-24.794203
